<mxfile host="drawio-plugin" modified="2021-06-27T05:01:02.344Z" agent="5.0 (Windows NT 6.2; Win64; x64) AppleWebKit/537.36 (KHTML, like Gecko) Chrome/87.0.4280.141 Safari/537.36" etag="g-o-GEpMD2AHpt_6K7fZ" version="14.7.4" type="embed"><diagram id="60dDJxIYFEsfsLh9ttuz" name="Page-1"><mxGraphModel dx="899" dy="3081" grid="0" gridSize="10" guides="1" tooltips="1" connect="1" arrows="1" fold="1" page="1" pageScale="1" pageWidth="827" pageHeight="1169" background="none" math="0" shadow="0"><root><mxCell id="0"/><mxCell id="1" parent="0"/><mxCell id="kSkQl4vreCL8ChjPLTnH-8" style="edgeStyle=orthogonalEdgeStyle;rounded=0;orthogonalLoop=1;jettySize=auto;html=1;" parent="1" source="klmmPDJRtt_HLgbDGjna-13" target="JUhYm3PO4TYNZJzOIT4d-6" edge="1"><mxGeometry relative="1" as="geometry"><mxPoint x="159" y="-2149" as="targetPoint"/></mxGeometry></mxCell><mxCell id="klmmPDJRtt_HLgbDGjna-13" value="spring cloud config server" style="rounded=1;whiteSpace=wrap;html=1;" parent="1" vertex="1"><mxGeometry x="93.5" y="-2026" width="120" height="60" as="geometry"/></mxCell><mxCell id="jpqpTq20g_OJKVMwTmPv-3" style="rounded=0;orthogonalLoop=1;jettySize=auto;html=1;" parent="1" source="jpqpTq20g_OJKVMwTmPv-2" target="klmmPDJRtt_HLgbDGjna-13" edge="1"><mxGeometry relative="1" as="geometry"/></mxCell><mxCell id="jpqpTq20g_OJKVMwTmPv-2" value="Microservicios" style="swimlane;" parent="1" vertex="1"><mxGeometry x="29" y="-1904" width="756" height="320" as="geometry"/></mxCell><mxCell id="jpqpTq20g_OJKVMwTmPv-5" style="edgeStyle=orthogonalEdgeStyle;rounded=0;orthogonalLoop=1;jettySize=auto;html=1;" parent="jpqpTq20g_OJKVMwTmPv-2" source="klmmPDJRtt_HLgbDGjna-2" target="jpqpTq20g_OJKVMwTmPv-4" edge="1"><mxGeometry relative="1" as="geometry"><Array as="points"><mxPoint x="298" y="110"/><mxPoint x="298" y="110"/></Array></mxGeometry></mxCell><mxCell id="JUhYm3PO4TYNZJzOIT4d-3" style="edgeStyle=orthogonalEdgeStyle;rounded=0;orthogonalLoop=1;jettySize=auto;html=1;" parent="jpqpTq20g_OJKVMwTmPv-2" source="klmmPDJRtt_HLgbDGjna-2" target="JUhYm3PO4TYNZJzOIT4d-1" edge="1"><mxGeometry relative="1" as="geometry"/></mxCell><mxCell id="klmmPDJRtt_HLgbDGjna-2" value="MSClient" style="rounded=1;whiteSpace=wrap;html=1;" parent="jpqpTq20g_OJKVMwTmPv-2" vertex="1"><mxGeometry x="50" y="60" width="120" height="60" as="geometry"/></mxCell><mxCell id="jpqpTq20g_OJKVMwTmPv-6" style="edgeStyle=orthogonalEdgeStyle;rounded=0;orthogonalLoop=1;jettySize=auto;html=1;" parent="jpqpTq20g_OJKVMwTmPv-2" source="klmmPDJRtt_HLgbDGjna-5" target="jpqpTq20g_OJKVMwTmPv-4" edge="1"><mxGeometry relative="1" as="geometry"><Array as="points"><mxPoint x="488" y="110"/><mxPoint x="488" y="110"/></Array></mxGeometry></mxCell><mxCell id="klmmPDJRtt_HLgbDGjna-5" value="MSProducts" style="rounded=1;whiteSpace=wrap;html=1;" parent="jpqpTq20g_OJKVMwTmPv-2" vertex="1"><mxGeometry x="423" y="57" width="120" height="60" as="geometry"/></mxCell><mxCell id="kSkQl4vreCL8ChjPLTnH-3" style="edgeStyle=orthogonalEdgeStyle;rounded=0;orthogonalLoop=1;jettySize=auto;html=1;" parent="jpqpTq20g_OJKVMwTmPv-2" source="klmmPDJRtt_HLgbDGjna-5" target="JUhYm3PO4TYNZJzOIT4d-5" edge="1"><mxGeometry relative="1" as="geometry"><mxPoint x="483" y="196" as="targetPoint"/></mxGeometry></mxCell><mxCell id="jpqpTq20g_OJKVMwTmPv-8" style="edgeStyle=orthogonalEdgeStyle;rounded=0;orthogonalLoop=1;jettySize=auto;html=1;" parent="jpqpTq20g_OJKVMwTmPv-2" source="jpqpTq20g_OJKVMwTmPv-4" target="JUhYm3PO4TYNZJzOIT4d-4" edge="1"><mxGeometry relative="1" as="geometry"><mxPoint x="297" y="185" as="targetPoint"/></mxGeometry></mxCell><mxCell id="jpqpTq20g_OJKVMwTmPv-4" value="MSSales" style="rounded=1;whiteSpace=wrap;html=1;" parent="jpqpTq20g_OJKVMwTmPv-2" vertex="1"><mxGeometry x="237" y="60" width="120" height="60" as="geometry"/></mxCell><mxCell id="JUhYm3PO4TYNZJzOIT4d-1" value="" style="dashed=0;outlineConnect=0;html=1;align=center;labelPosition=center;verticalLabelPosition=bottom;verticalAlign=top;shape=mxgraph.weblogos.mongodb" parent="jpqpTq20g_OJKVMwTmPv-2" vertex="1"><mxGeometry x="89.4" y="203" width="41.2" height="86.2" as="geometry"/></mxCell><mxCell id="JUhYm3PO4TYNZJzOIT4d-5" value="" style="dashed=0;outlineConnect=0;html=1;align=center;labelPosition=center;verticalLabelPosition=bottom;verticalAlign=top;shape=mxgraph.weblogos.mongodb" parent="jpqpTq20g_OJKVMwTmPv-2" vertex="1"><mxGeometry x="462.4" y="197" width="41.2" height="86.2" as="geometry"/></mxCell><mxCell id="JUhYm3PO4TYNZJzOIT4d-4" value="" style="dashed=0;outlineConnect=0;html=1;align=center;labelPosition=center;verticalLabelPosition=bottom;verticalAlign=top;shape=mxgraph.weblogos.mongodb" parent="jpqpTq20g_OJKVMwTmPv-2" vertex="1"><mxGeometry x="276.4" y="197" width="41.2" height="86.2" as="geometry"/></mxCell><mxCell id="JUhYm3PO4TYNZJzOIT4d-6" value="" style="dashed=0;outlineConnect=0;html=1;align=center;labelPosition=center;verticalLabelPosition=bottom;verticalAlign=top;shape=mxgraph.weblogos.github" parent="1" vertex="1"><mxGeometry x="116" y="-2233" width="75" height="75" as="geometry"/></mxCell><mxCell id="JUhYm3PO4TYNZJzOIT4d-7" value="MS-Discovery" style="rounded=1;whiteSpace=wrap;html=1;" parent="1" vertex="1"><mxGeometry x="347" y="-2083" width="120" height="60" as="geometry"/></mxCell><mxCell id="JUhYm3PO4TYNZJzOIT4d-8" value="MS.GATEWAY" style="rounded=1;whiteSpace=wrap;html=1;" parent="1" vertex="1"><mxGeometry x="548" y="-2187" width="120" height="60" as="geometry"/></mxCell><mxCell id="JUhYm3PO4TYNZJzOIT4d-9" value="" style="endArrow=classic;html=1;" parent="1" source="jpqpTq20g_OJKVMwTmPv-2" target="JUhYm3PO4TYNZJzOIT4d-7" edge="1"><mxGeometry width="50" height="50" relative="1" as="geometry"><mxPoint x="557" y="-1852" as="sourcePoint"/><mxPoint x="607" y="-1902" as="targetPoint"/></mxGeometry></mxCell><mxCell id="JUhYm3PO4TYNZJzOIT4d-12" value="" style="endArrow=classic;startArrow=classic;html=1;" parent="1" target="JUhYm3PO4TYNZJzOIT4d-8" edge="1"><mxGeometry width="50" height="50" relative="1" as="geometry"><mxPoint x="422" y="-2076" as="sourcePoint"/><mxPoint x="472" y="-2156" as="targetPoint"/></mxGeometry></mxCell><mxCell id="JUhYm3PO4TYNZJzOIT4d-14" style="edgeStyle=none;rounded=0;orthogonalLoop=1;jettySize=auto;html=1;" parent="1" source="JUhYm3PO4TYNZJzOIT4d-13" target="JUhYm3PO4TYNZJzOIT4d-8" edge="1"><mxGeometry relative="1" as="geometry"/></mxCell><mxCell id="JUhYm3PO4TYNZJzOIT4d-13" value="Actor" style="shape=umlActor;verticalLabelPosition=bottom;verticalAlign=top;html=1;outlineConnect=0;" parent="1" vertex="1"><mxGeometry x="616" y="-2309" width="30" height="60" as="geometry"/></mxCell></root></mxGraphModel></diagram></mxfile>